# xmcd
#
# Track frame offsets:
#	150
#	10047
#	24264
#	35534
#	50716
#	61246
#	73741
#	86003
#	97166
#	107587
#	119084
#	130480
#	139169
#	152907
#	162921
#	175045
#
# Disc length: 2402 seconds
#
# Revision: 0
# Processed by: cddbd v1.5.2PL0 Copyright (c) Steve Scherf et al.
# Submitted via: EasyCDDAExtractor 16.0.1.1
#
DISCID=de096010
DTITLE=Chris Isaak - Christmas
DYEAR=2004
DGENRE=Christmas
TTITLE0=Rudolph The Red-Nosed Reindeer
TTITLE1=Have Yourself A Merry Little Christmas
TTITLE2=Santa Claus Is Coming To Town
TTITLE3=Washington Square
TTITLE4=Blue Christmas
TTITLE5=Christmas Song, The
TTITLE6=Hey Santa!
TTITLE7=Let It Snow
TTITLE8=Christmas On Tv
TTITLE9=Pretty Paper
TTITLE10=White Christmas
TTITLE11=Mele Kalikimaka
TTITLE12=Brightest Star
TTITLE13=Last Month Of The Year
TTITLE14=Gotta Be Good
TTITLE15=Auld Lang Syne
EXTD=
EXTT0=
EXTT1=
EXTT2=
EXTT3=
EXTT4=
EXTT5=
EXTT6=
EXTT7=
EXTT8=
EXTT9=
EXTT10=
EXTT11=
EXTT12=
EXTT13=
EXTT14=
EXTT15=
PLAYORDER=
